<svg height="2206" width="720" xmlns="http://www.w3.org/2000/svg">
<rect height="2206" fill="#555" width="720"></rect>
<text fill="#7f7" font-family="Courier New" font-size="12" xml:space="preserve">
<tspan x="10" y="26">33 megabytes installed</tspan>
<tspan x="10" y="42"></tspan>
<tspan x="10" y="58">node_modules</tspan>
<tspan x="10" y="74">└─┬ alasql@0.3.9 </tspan>
<tspan x="10" y="90">  ├── dom-storage@2.0.2 </tspan>
<tspan x="10" y="106">  ├── es6-promise@4.1.0 </tspan>
<tspan x="10" y="122">  ├── lodash@4.17.4 </tspan>
<tspan x="10" y="138">  ├─┬ request@2.81.0 </tspan>
<tspan x="10" y="154">  │ ├── aws-sign2@0.6.0 </tspan>
<tspan x="10" y="170">  │ ├── aws4@1.6.0 </tspan>
<tspan x="10" y="186">  │ ├── caseless@0.12.0 </tspan>
<tspan x="10" y="202">  │ ├─┬ combined-stream@1.0.5 </tspan>
<tspan x="10" y="218">  │ │ └── delayed-stream@1.0.0 </tspan>
<tspan x="10" y="234">  │ ├── extend@3.0.0 </tspan>
<tspan x="10" y="250">  │ ├── forever-agent@0.6.1 </tspan>
<tspan x="10" y="266">  │ ├─┬ form-data@2.1.4 </tspan>
<tspan x="10" y="282">  │ │ └── asynckit@0.4.0 </tspan>
<tspan x="10" y="298">  │ ├─┬ har-validator@4.2.1 </tspan>
<tspan x="10" y="314">  │ │ ├─┬ ajv@4.11.7 </tspan>
<tspan x="10" y="330">  │ │ │ ├── co@4.6.0 </tspan>
<tspan x="10" y="346">  │ │ │ └─┬ json-stable-stringify@1.0.1 </tspan>
<tspan x="10" y="362">  │ │ │   └── jsonify@0.0.0 </tspan>
<tspan x="10" y="378">  │ │ └── har-schema@1.0.5 </tspan>
<tspan x="10" y="394">  │ ├─┬ hawk@3.1.3 </tspan>
<tspan x="10" y="410">  │ │ ├── boom@2.10.1 </tspan>
<tspan x="10" y="426">  │ │ ├── cryptiles@2.0.5 </tspan>
<tspan x="10" y="442">  │ │ ├── hoek@2.16.3 </tspan>
<tspan x="10" y="458">  │ │ └── sntp@1.0.9 </tspan>
<tspan x="10" y="474">  │ ├─┬ http-signature@1.1.1 </tspan>
<tspan x="10" y="490">  │ │ ├── assert-plus@0.2.0 </tspan>
<tspan x="10" y="506">  │ │ ├─┬ jsprim@1.4.0 </tspan>
<tspan x="10" y="522">  │ │ │ ├── assert-plus@1.0.0 </tspan>
<tspan x="10" y="538">  │ │ │ ├── extsprintf@1.0.2 </tspan>
<tspan x="10" y="554">  │ │ │ ├── json-schema@0.2.3 </tspan>
<tspan x="10" y="570">  │ │ │ └── verror@1.3.6 </tspan>
<tspan x="10" y="586">  │ │ └─┬ sshpk@1.13.0 </tspan>
<tspan x="10" y="602">  │ │   ├── asn1@0.2.3 </tspan>
<tspan x="10" y="618">  │ │   ├── assert-plus@1.0.0 </tspan>
<tspan x="10" y="634">  │ │   ├── bcrypt-pbkdf@1.0.1 </tspan>
<tspan x="10" y="650">  │ │   ├─┬ dashdash@1.14.1 </tspan>
<tspan x="10" y="666">  │ │   │ └── assert-plus@1.0.0 </tspan>
<tspan x="10" y="682">  │ │   ├── ecc-jsbn@0.1.1 </tspan>
<tspan x="10" y="698">  │ │   ├─┬ getpass@0.1.6 </tspan>
<tspan x="10" y="714">  │ │   │ └── assert-plus@1.0.0 </tspan>
<tspan x="10" y="730">  │ │   ├── jodid25519@1.0.2 </tspan>
<tspan x="10" y="746">  │ │   ├── jsbn@0.1.1 </tspan>
<tspan x="10" y="762">  │ │   └── tweetnacl@0.14.5 </tspan>
<tspan x="10" y="778">  │ ├── is-typedarray@1.0.0 </tspan>
<tspan x="10" y="794">  │ ├── isstream@0.1.2 </tspan>
<tspan x="10" y="810">  │ ├── json-stringify-safe@5.0.1 </tspan>
<tspan x="10" y="826">  │ ├─┬ mime-types@2.1.15 </tspan>
<tspan x="10" y="842">  │ │ └── mime-db@1.27.0 </tspan>
<tspan x="10" y="858">  │ ├── oauth-sign@0.8.2 </tspan>
<tspan x="10" y="874">  │ ├── performance-now@0.2.0 </tspan>
<tspan x="10" y="890">  │ ├── qs@6.4.0 </tspan>
<tspan x="10" y="906">  │ ├── safe-buffer@5.0.1 </tspan>
<tspan x="10" y="922">  │ ├── stringstream@0.0.5 </tspan>
<tspan x="10" y="938">  │ ├─┬ tough-cookie@2.3.2 </tspan>
<tspan x="10" y="954">  │ │ └── punycode@1.4.1 </tspan>
<tspan x="10" y="970">  │ ├── tunnel-agent@0.6.0 </tspan>
<tspan x="10" y="986">  │ └── uuid@3.0.1 </tspan>
<tspan x="10" y="1002">  ├─┬ xlsx@0.9.11 </tspan>
<tspan x="10" y="1018">  │ ├─┬ adler-32@1.0.0 </tspan>
<tspan x="10" y="1034">  │ │ ├─┬ concat-stream@1.6.0 </tspan>
<tspan x="10" y="1050">  │ │ │ ├── inherits@2.0.3 </tspan>
<tspan x="10" y="1066">  │ │ │ ├─┬ readable-stream@2.2.9 </tspan>
<tspan x="10" y="1082">  │ │ │ │ ├── buffer-shims@1.0.0 </tspan>
<tspan x="10" y="1098">  │ │ │ │ ├── core-util-is@1.0.2 </tspan>
<tspan x="10" y="1114">  │ │ │ │ ├── isarray@1.0.0 </tspan>
<tspan x="10" y="1130">  │ │ │ │ ├── process-nextick-args@1.0.7 </tspan>
<tspan x="10" y="1146">  │ │ │ │ ├── string_decoder@1.0.0 </tspan>
<tspan x="10" y="1162">  │ │ │ │ └── util-deprecate@1.0.2 </tspan>
<tspan x="10" y="1178">  │ │ │ └── typedarray@0.0.6 </tspan>
<tspan x="10" y="1194">  │ │ ├── exit-on-epipe@1.0.0 </tspan>
<tspan x="10" y="1210">  │ │ └── printj@1.0.0 </tspan>
<tspan x="10" y="1226">  │ ├─┬ cfb@0.11.1 </tspan>
<tspan x="10" y="1242">  │ │ └── commander@2.9.0 </tspan>
<tspan x="10" y="1258">  │ ├─┬ codepage@1.8.1 </tspan>
<tspan x="10" y="1274">  │ │ ├── commander@2.9.0 </tspan>
<tspan x="10" y="1290">  │ │ ├── exit-on-epipe@1.0.0 </tspan>
<tspan x="10" y="1306">  │ │ └── voc@0.5.0 </tspan>
<tspan x="10" y="1322">  │ ├─┬ commander@2.9.0 </tspan>
<tspan x="10" y="1338">  │ │ └── graceful-readlink@1.0.1 </tspan>
<tspan x="10" y="1354">  │ ├─┬ crc-32@1.0.1 </tspan>
<tspan x="10" y="1370">  │ │ └── exit-on-epipe@1.0.0 </tspan>
<tspan x="10" y="1386">  │ ├── exit-on-epipe@1.0.0 </tspan>
<tspan x="10" y="1402">  │ └─┬ ssf@0.9.0 </tspan>
<tspan x="10" y="1418">  │   ├── colors@0.6.2 </tspan>
<tspan x="10" y="1434">  │   └── frac@0.3.1 </tspan>
<tspan x="10" y="1450">  └─┬ yargs@5.0.0 </tspan>
<tspan x="10" y="1466">    ├─┬ cliui@3.2.0 </tspan>
<tspan x="10" y="1482">    │ ├─┬ strip-ansi@3.0.1 </tspan>
<tspan x="10" y="1498">    │ │ └── ansi-regex@2.1.1 </tspan>
<tspan x="10" y="1514">    │ └── wrap-ansi@2.1.0 </tspan>
<tspan x="10" y="1530">    ├── decamelize@1.2.0 </tspan>
<tspan x="10" y="1546">    ├── get-caller-file@1.0.2 </tspan>
<tspan x="10" y="1562">    ├── lodash.assign@4.2.0 </tspan>
<tspan x="10" y="1578">    ├─┬ os-locale@1.4.0 </tspan>
<tspan x="10" y="1594">    │ └─┬ lcid@1.0.0 </tspan>
<tspan x="10" y="1610">    │   └── invert-kv@1.0.0 </tspan>
<tspan x="10" y="1626">    ├─┬ read-pkg-up@1.0.1 </tspan>
<tspan x="10" y="1642">    │ ├─┬ find-up@1.1.2 </tspan>
<tspan x="10" y="1658">    │ │ ├── path-exists@2.1.0 </tspan>
<tspan x="10" y="1674">    │ │ └─┬ pinkie-promise@2.0.1 </tspan>
<tspan x="10" y="1690">    │ │   └── pinkie@2.0.4 </tspan>
<tspan x="10" y="1706">    │ └─┬ read-pkg@1.1.0 </tspan>
<tspan x="10" y="1722">    │   ├─┬ load-json-file@1.1.0 </tspan>
<tspan x="10" y="1738">    │   │ ├── graceful-fs@4.1.11 </tspan>
<tspan x="10" y="1754">    │   │ ├─┬ parse-json@2.2.0 </tspan>
<tspan x="10" y="1770">    │   │ │ └─┬ error-ex@1.3.1 </tspan>
<tspan x="10" y="1786">    │   │ │   └── is-arrayish@0.2.1 </tspan>
<tspan x="10" y="1802">    │   │ ├── pify@2.3.0 </tspan>
<tspan x="10" y="1818">    │   │ └─┬ strip-bom@2.0.0 </tspan>
<tspan x="10" y="1834">    │   │   └── is-utf8@0.2.1 </tspan>
<tspan x="10" y="1850">    │   ├─┬ normalize-package-data@2.3.6 </tspan>
<tspan x="10" y="1866">    │   │ ├── hosted-git-info@2.4.2 </tspan>
<tspan x="10" y="1882">    │   │ ├─┬ is-builtin-module@1.0.0 </tspan>
<tspan x="10" y="1898">    │   │ │ └── builtin-modules@1.1.1 </tspan>
<tspan x="10" y="1914">    │   │ ├── semver@5.3.0 </tspan>
<tspan x="10" y="1930">    │   │ └─┬ validate-npm-package-license@3.0.1 </tspan>
<tspan x="10" y="1946">    │   │   ├─┬ spdx-correct@1.0.2 </tspan>
<tspan x="10" y="1962">    │   │   │ └── spdx-license-ids@1.2.2 </tspan>
<tspan x="10" y="1978">    │   │   └── spdx-expression-parse@1.0.4 </tspan>
<tspan x="10" y="1994">    │   └── path-type@1.1.0 </tspan>
<tspan x="10" y="2010">    ├── require-directory@2.1.1 </tspan>
<tspan x="10" y="2026">    ├── require-main-filename@1.0.1 </tspan>
<tspan x="10" y="2042">    ├── set-blocking@2.0.0 </tspan>
<tspan x="10" y="2058">    ├─┬ string-width@1.0.2 </tspan>
<tspan x="10" y="2074">    │ ├── code-point-at@1.1.0 </tspan>
<tspan x="10" y="2090">    │ └─┬ is-fullwidth-code-point@1.0.0 </tspan>
<tspan x="10" y="2106">    │   └── number-is-nan@1.0.1 </tspan>
<tspan x="10" y="2122">    ├── which-module@1.0.0 </tspan>
<tspan x="10" y="2138">    ├── window-size@0.2.0 </tspan>
<tspan x="10" y="2154">    ├── y18n@3.2.1 </tspan>
<tspan x="10" y="2170">    └─┬ yargs-parser@3.2.0 </tspan>
<tspan x="10" y="2186">      └── camelcase@3.0.0</tspan>
</text>
</svg>
